<?xml version="1.0" encoding="UTF-8"?>
<!DOCTYPE svg PUBLIC "-//W3C//DTD SVG 1.1//EN" "http://www.w3.org/Graphics/SVG/1.1/DTD/svg11.dtd">
<!-- Creator: CorelDRAW 2021 (64-Bit) -->
<svg xmlns="http://www.w3.org/2000/svg" xml:space="preserve" width="1.30754in" height="2.13945in" version="1.1" style="shape-rendering:geometricPrecision; text-rendering:geometricPrecision; image-rendering:optimizeQuality; fill-rule:evenodd; clip-rule:evenodd"
viewBox="0 0 1307.54 2139.45"
 xmlns:xlink="http://www.w3.org/1999/xlink"
 xmlns:xodm="http://www.corel.com/coreldraw/odm/2003">
 <defs>
  <style type="text/css">
   <![CDATA[
    .fil0 {fill:#E6E6E6}
   ]]>
  </style>
 </defs>
 <g id="Layer_x0020_1">
  <metadata id="CorelCorpID_0Corel-Layer"/>
  <g id="_1606999649344">
   <path class="fil0" d="M742.95 970.06l-3.41 9.85c-12.14,-14.91 -7.74,-25.79 -7.68,-53.4 0.25,-121.36 -4.18,-717.58 1.55,-761.42l377.36 4.28c57,12.76 31.92,65.86 10.79,101.94 -18.9,32.3 -36.1,65.55 -54.58,97.94 -36.65,64.28 -78.07,134.09 -110.76,198.94 -33.46,66.4 -76.88,130.25 -110.91,198.56 -19.36,38.85 -93.01,174.19 -102.37,203.29zm-546.1 -800.87l13.35 -6.67c62.57,0 323.24,-7.87 364.54,3.07l-1.67 813.66 -5.21 -11.12 -107.66 -203.63c-50.09,-103.1 -160.56,-283.28 -223.17,-400.86 -37.12,-69.74 -120.52,-176.35 -40.19,-194.44zm-9.19 -163.98c-92.18,11.96 -154.32,70 -178.43,147.35 -31.91,102.29 26.12,181.72 65.69,248.38 81.41,137.14 157.25,276.25 238.2,413.45 81.47,138.1 159.56,272.59 238.58,412.87 21.42,38.02 35.06,71.57 79.97,82.01 58.92,13.71 89.28,-21.93 109.11,-55.41l536.01 -928.87c75.44,-130.8 3.16,-275.99 -120.02,-312.8 -56.64,-16.93 -548,-8.72 -646.2,-8.72 -89.67,0 -241.24,-8.85 -322.91,1.74z"/>
   <path class="fil0" d="M742.95 1169.39l-3.41 -9.85c-12.14,14.91 -7.74,25.79 -7.68,53.4 0.25,121.36 -4.18,717.58 1.55,761.42l377.36 -4.28c57,-12.76 31.92,-65.86 10.79,-101.94 -18.9,-32.3 -36.1,-65.55 -54.58,-97.94 -36.65,-64.28 -78.07,-134.09 -110.76,-198.94 -33.46,-66.4 -76.88,-130.25 -110.91,-198.56 -19.36,-38.85 -93.01,-174.19 -102.37,-203.29zm-546.1 800.87l13.35 6.67c62.57,0 323.24,7.87 364.54,-3.07l-1.67 -813.66 -5.21 11.12 -107.66 203.63c-50.09,103.1 -160.56,283.28 -223.17,400.86 -37.12,69.74 -120.52,176.35 -40.19,194.44zm-9.19 163.98c-92.18,-11.96 -154.32,-70 -178.43,-147.35 -31.91,-102.29 26.12,-181.72 65.69,-248.38 81.41,-137.14 157.25,-276.25 238.2,-413.45 81.47,-138.1 159.56,-272.59 238.58,-412.87 21.42,-38.02 35.06,-71.57 79.97,-82.01 58.92,-13.71 89.28,21.93 109.11,55.41l536.01 928.87c75.44,130.8 3.16,275.99 -120.02,312.8 -56.64,16.93 -548,8.72 -646.2,8.72 -89.67,0 -241.24,8.85 -322.91,-1.74z"/>
  </g>
 </g>
</svg>
